<svg xmlns="http://www.w3.org/2000/svg" width="24" height="24"
     viewBox="0 0 24 24" fill="none">
  <!-- Puffy top + integrated sides (clean, minimal points for 24px) -->
  <path d="M6.4 10.2
           C4.9 9.9 3.8 8.7 3.8 7.2
           C3.8 5.7 4.8 4.5 6.2 4.2
           C6.7 3.1 7.9 2.4 9.3 2.4
           C10.4 2.4 11.3 2.9 12.0 3.6
           C12.7 2.9 13.6 2.4 14.7 2.4
           C16.2 2.4 17.5 3.3 18.0 4.7
           C19.4 5.1 20.4 6.4 20.4 7.9
           C20.4 9.5 19.2 10.7 17.6 10.9
           C16.8 10.9 16.1 10.7 15.5 10.2
           C15.1 11.2 14.3 11.9 13.2 12.1
           C12.4 12.3 11.5 12.2 10.8 11.7
           C10.4 12.3 9.8 12.7 9.0 12.9
           C7.6 13.2 6.6 12.2 6.4 10.2 Z"
        stroke="currentColor" stroke-width="2"
        stroke-linecap="round" stroke-linejoin="round"/>

  <!-- Hat band -->
  <path d="M7.2 12.4
           H16.8
           C17.5 12.4 18.0 12.9 18.0 13.6
           V18.2
           C18.0 18.9 17.5 19.4 16.8 19.4
           H7.2
           C6.5 19.4 6.0 18.9 6.0 18.2
           V13.6
           C6.0 12.9 6.5 12.4 7.2 12.4 Z"
        stroke="currentColor" stroke-width="2"
        stroke-linecap="round" stroke-linejoin="round"/>

  <!-- Band folds (two smooth swooshes like the reference) -->
  <path d="M7.6 15.0 C10.0 14.2 12.8 14.2 16.4 15.4"
        stroke="currentColor" stroke-width="1.8"
        stroke-linecap="round"/>

  <path d="M7.6 16.9 C10.1 16.1 12.9 16.2 16.4 17.4"
        stroke="currentColor" stroke-width="1.8"
        stroke-linecap="round"/>
</svg>